# xmcd
#
# Track frame offsets:
#  150
#  17856
#  33123
#  47657
#  60919
#  80468
#  98603
#  111883
#  125576
#  141736
#  157943
#  173760
#  188104
#
# Disc length: 2783 seconds
#
# Revision: 0
# Processed by: cddbd v1.5.1PL2 Copyright (c) Steve Scherf et al.
# Submitted via: Collectorz.com_Music_Collector 6.11
#
DISCID=a20add0d
DTITLE=Various Artist - Totally Country [CD 2)
DYEAR=2006
DGENRE=Country
TTITLE0=Dixie Chicks - Not Ready To Make Nice
TTITLE1=Garth Brooks - Good Ride Cowboy
TTITLE2=Hank Williams Jr. Featuring Gretchen Wilson and Big and Rich and Van Zant - That's How They Do It In Dixie
TTITLE3=Jamey Johnson - The Dollar
TTITLE4=Keith Anderson - Every Time I Hear Your Name
TTITLE5=Little Big Town - Boondocks
TTITLE6=Megan Mullins - Ain't What It Used To Be
TTITLE7=Neal McCoy - The Last Of A Dying Breed
TTITLE8=Rio Grand - Kill Me Now
TTITLE9=Rodney Atkins - If You're Going Through Hell (Before The Devil Even Knows)
TTITLE10=Steve Holy - Brand New Girlfriend
TTITLE11=Trent Tomlinson - Drunker Than Me
TTITLE12=Garth Brooks and Trisha Yearwood - Love Will Always Win
EXTD=
EXTT0=
EXTT1=
EXTT2=
EXTT3=
EXTT4=
EXTT5=
EXTT6=
EXTT7=
EXTT8=
EXTT9=
EXTT10=
EXTT11=
EXTT12=
PLAYORDER=
